<?xml version="1.0" encoding="utf-8"?>
<!-- Svg Vector Icons : http://www.onlinewebfonts.com/icon -->
<svg version="1.1" xmlns="http://www.w3.org/2000/svg" x="0px" y="0px" viewBox="0 0 1000 1000"
     enable-background="new 0 0 1000 1000" xml:space="preserve">
<metadata> Svg Vector Icons : https://www.onlinewebfonts.com/icon </metadata>
    <g><path fill="#ffffff" d="M133.1,231.6l366.8,385.1l371.6-390.1l0,0C884,213.8,901.1,206,920,206c38.7,0,70,32.9,70,73.5c0,19.8-7.5,37.8-19.6,51l0,0l-420,441l0,0C537.7,785.4,519.8,794,500,794c0,0-0.1,0-0.1,0c0,0-0.1,0-0.1,0c-19.8,0-37.7-8.6-50.4-22.5h0l-420-441l0.2-0.2C17.4,317.1,10,299.2,10,279.5c0-40.6,31.3-73.5,70-73.5C101.3,206,120.3,215.9,133.1,231.6z"/></g>
</svg>