<svg viewBox="0 0 512 512" xmlns="http://www.w3.org/2000/svg">
        <path style="fill: #399062; font-size: 36px; font-family: Roboto; white-space: pre;" y="261.959" xmlns="http://www.w3.org/2000/svg" d="M 505.081 194.391 C 508.904 194.391 511.999 191.365 511.999 187.625 L 511.999 122.979 C 511.999 104.859 496.92 90.116 478.384 90.116 L 33.613 90.116 C 15.077 90.116 -0.001 104.859 -0.001 122.979 L -0.001 187.628 C -0.001 191.366 3.099 194.394 6.917 194.394 C 39.667 194.394 66.304 220.435 66.304 252.446 C 66.304 284.457 39.667 310.506 6.917 310.506 C 3.099 310.506 -0.001 313.529 -0.001 317.264 L -0.001 381.918 C -0.001 400.037 15.077 414.779 33.613 414.779 L 478.384 414.779 C 496.92 414.779 511.999 400.037 511.999 381.918 L 511.999 317.264 C 511.999 313.529 508.904 310.506 505.081 310.506 C 472.331 310.506 445.693 284.457 445.693 252.446 C 445.693 220.435 472.331 194.391 505.081 194.391 Z M 431.856 252.446 C 431.856 289.637 461.018 320.293 498.161 323.712 L 498.161 381.921 C 498.161 392.579 489.288 401.255 478.384 401.255 L 174.296 401.255 L 174.296 369.699 C 174.296 365.965 171.198 362.936 167.379 362.936 C 163.56 362.936 160.459 365.965 160.459 369.699 L 160.459 401.255 L 33.613 401.255 C 22.708 401.255 13.839 392.576 13.839 381.918 L 13.839 323.712 C 50.981 320.293 80.142 289.637 80.142 252.446 C 80.142 215.257 50.981 184.602 13.839 181.18 L 13.839 122.979 C 13.839 112.315 22.705 103.646 33.613 103.646 L 160.459 103.646 L 160.459 135.195 C 160.459 138.934 163.56 141.96 167.379 141.96 C 171.199 141.96 174.296 138.934 174.296 135.195 L 174.296 103.646 L 478.384 103.646 C 489.288 103.646 498.162 112.315 498.162 122.979 L 498.162 181.18 C 461.018 184.602 431.856 215.257 431.856 252.446 Z M 174.296 231.839 L 174.296 273.055 C 174.296 276.792 171.198 279.821 167.379 279.821 C 163.56 279.821 160.459 276.792 160.459 273.055 L 160.459 231.839 C 160.459 228.105 163.56 225.08 167.379 225.08 C 171.198 225.08 174.296 228.105 174.296 231.839 Z M 174.296 300.77 L 174.296 341.982 C 174.296 345.721 171.198 348.75 167.379 348.75 C 163.56 348.75 160.459 345.721 160.459 341.982 L 160.459 300.77 C 160.459 297.033 163.56 294.004 167.379 294.004 C 171.198 294.004 174.296 297.033 174.296 300.77 Z M 174.296 162.91 L 174.296 204.127 C 174.296 207.864 171.198 210.891 167.379 210.891 C 163.56 210.891 160.459 207.864 160.459 204.127 L 160.459 162.91 C 160.459 159.172 163.56 156.147 167.379 156.147 C 171.198 156.147 174.296 159.172 174.296 162.91 Z M 378.974 168.746 C 378.974 172.48 375.874 175.509 372.052 175.509 L 249.82 175.509 C 246.001 175.509 242.901 172.48 242.901 168.746 C 242.901 165.006 246.001 161.984 249.82 161.984 L 372.052 161.984 C 375.874 161.984 378.974 165.006 378.974 168.746 Z M 378.974 224.548 C 378.974 228.282 375.874 231.31 372.052 231.31 L 249.82 231.31 C 246.001 231.31 242.901 228.282 242.901 224.548 C 242.901 220.81 246.001 217.783 249.82 217.783 L 372.052 217.783 C 375.874 217.783 378.974 220.81 378.974 224.548 Z M 378.974 280.349 C 378.974 284.085 375.874 287.111 372.052 287.111 L 249.82 287.111 C 246.001 287.111 242.901 284.085 242.901 280.349 C 242.901 276.611 246.001 273.583 249.82 273.583 L 372.052 273.583 C 375.874 273.583 378.974 276.611 378.974 280.349 Z M 378.974 336.148 C 378.974 339.885 375.874 342.914 372.052 342.914 L 249.82 342.914 C 246.001 342.914 242.901 339.885 242.901 336.148 C 242.901 332.409 246.001 329.38 249.82 329.38 L 372.052 329.38 C 375.874 329.383 378.974 332.409 378.974 336.148 Z" transform="matrix(1, 0, 0, 1, 1.1368683772161603e-13, 0)"/>
</svg>

