<svg viewBox="0 0 512 512" xmlns="http://www.w3.org/2000/svg">
    <circle style="fill: #215f41" cx="256" cy="256" r="256"/>
    <circle style="fill: #173d2b;" cx="256" cy="256" r="215"/>
    <circle style="fill: rgb(5,7,6);" cx="256" cy="256" r="174"/>
    <circle style="fill: rgb(252,252,252);" cx="256" cy="256" r="133"/>
    <path style="fill: #399062;font-size: 36px; font-family: Roboto; white-space: pre;" xmlns="http://www.w3.org/2000/svg"
          d="M 358.591 234.489 C 360.146 234.489 361.406 233.367 361.406 231.982 L 361.406 208.031 C 361.406 201.317 355.27 195.855 347.728 195.855 L 166.752 195.855 C 159.21 195.855 153.075 201.317 153.075 208.031 L 153.075 231.983 C 153.075 233.368 154.336 234.49 155.89 234.49 C 169.216 234.49 180.054 244.138 180.054 255.998 C 180.054 267.858 169.216 277.509 155.89 277.509 C 154.336 277.509 153.075 278.629 153.075 280.013 L 153.075 303.967 C 153.075 310.68 159.21 316.142 166.752 316.142 L 347.728 316.142 C 355.27 316.142 361.406 310.68 361.406 303.967 L 361.406 280.013 C 361.406 278.629 360.146 277.509 358.591 277.509 C 345.265 277.509 334.426 267.858 334.426 255.998 C 334.426 244.138 345.265 234.489 358.591 234.489 Z M 328.796 255.998 C 328.796 269.777 340.662 281.135 355.775 282.402 L 355.775 303.968 C 355.775 307.917 352.165 311.131 347.728 311.131 L 223.996 311.131 L 223.996 299.44 C 223.996 298.056 222.735 296.934 221.181 296.934 C 219.627 296.934 218.365 298.056 218.365 299.44 L 218.365 311.131 L 166.752 311.131 C 162.315 311.131 158.706 307.916 158.706 303.967 L 158.706 282.402 C 173.819 281.135 185.685 269.777 185.685 255.998 C 185.685 242.219 173.819 230.862 158.706 229.594 L 158.706 208.031 C 158.706 204.08 162.314 200.868 166.752 200.868 L 218.365 200.868 L 218.365 212.557 C 218.365 213.942 219.627 215.063 221.181 215.063 C 222.736 215.063 223.996 213.942 223.996 212.557 L 223.996 200.868 L 347.728 200.868 C 352.165 200.868 355.776 204.08 355.776 208.031 L 355.776 229.594 C 340.662 230.862 328.796 242.219 328.796 255.998 Z M 223.996 248.363 L 223.996 263.633 C 223.996 265.018 222.735 266.14 221.181 266.14 C 219.627 266.14 218.365 265.018 218.365 263.633 L 218.365 248.363 C 218.365 246.98 219.627 245.859 221.181 245.859 C 222.735 245.859 223.996 246.98 223.996 248.363 Z M 223.996 273.902 L 223.996 289.171 C 223.996 290.556 222.735 291.678 221.181 291.678 C 219.627 291.678 218.365 290.556 218.365 289.171 L 218.365 273.902 C 218.365 272.517 219.627 271.395 221.181 271.395 C 222.735 271.395 223.996 272.517 223.996 273.902 Z M 223.996 222.825 L 223.996 238.096 C 223.996 239.48 222.735 240.602 221.181 240.602 C 219.627 240.602 218.365 239.48 218.365 238.096 L 218.365 222.825 C 218.365 221.44 219.627 220.319 221.181 220.319 C 222.735 220.319 223.996 221.44 223.996 222.825 Z M 307.278 224.987 C 307.278 226.371 306.017 227.493 304.462 227.493 L 254.726 227.493 C 253.172 227.493 251.911 226.371 251.911 224.987 C 251.911 223.602 253.172 222.482 254.726 222.482 L 304.462 222.482 C 306.017 222.482 307.278 223.602 307.278 224.987 Z M 307.278 245.662 C 307.278 247.045 306.017 248.167 304.462 248.167 L 254.726 248.167 C 253.172 248.167 251.911 247.045 251.911 245.662 C 251.911 244.277 253.172 243.155 254.726 243.155 L 304.462 243.155 C 306.017 243.155 307.278 244.277 307.278 245.662 Z M 307.278 266.336 C 307.278 267.72 306.017 268.841 304.462 268.841 L 254.726 268.841 C 253.172 268.841 251.911 267.72 251.911 266.336 C 251.911 264.951 253.172 263.829 254.726 263.829 L 304.462 263.829 C 306.017 263.829 307.278 264.951 307.278 266.336 Z M 307.278 287.009 C 307.278 288.394 306.017 289.516 304.462 289.516 L 254.726 289.516 C 253.172 289.516 251.911 288.394 251.911 287.009 C 251.911 285.624 253.172 284.502 254.726 284.502 L 304.462 284.502 C 306.017 284.503 307.278 285.624 307.278 287.009 Z"
    />

</svg>

